<svg width="18" height="18" viewBox="0 0 18 18" fill="none" xmlns="http://www.w3.org/2000/svg">
<path d="M12 18C10.8954 18 10 17.1046 10 16V10C10 8.89543 10.8954 8 12 8H16C17.1046 8 18 8.89543 18 10V16C18 17.1046 17.1046 18 16 18H12ZM2 10C0.895431 10 0 9.10457 0 8V2C0 0.89543 0.895431 0 2 0H6C7.10457 0 8 0.895431 8 2V8C8 9.10457 7.10457 10 6 10H2ZM4 8C5.10457 8 6 7.10457 6 6V4C6 2.89543 5.10457 2 4 2V2C2.89543 2 2 2.89543 2 4V6C2 7.10457 2.89543 8 4 8V8ZM2 18C0.895431 18 0 17.1046 0 16V14C0 12.8954 0.895431 12 2 12H6C7.10457 12 8 12.8954 8 14V16C8 17.1046 7.10457 18 6 18H2ZM2 15C2 15.5523 2.44772 16 3 16H5C5.55228 16 6 15.5523 6 15V15C6 14.4477 5.55228 14 5 14H3C2.44772 14 2 14.4477 2 15V15ZM12 14C12 15.1046 12.8954 16 14 16V16C15.1046 16 16 15.1046 16 14V12C16 10.8954 15.1046 10 14 10V10C12.8954 10 12 10.8954 12 12V14ZM10 2C10 0.89543 10.8954 0 12 0H16C17.1046 0 18 0.895431 18 2V4C18 5.10457 17.1046 6 16 6H12C10.8954 6 10 5.10457 10 4V2ZM13 2C12.4477 2 12 2.44772 12 3V3C12 3.55228 12.4477 4 13 4H15C15.5523 4 16 3.55228 16 3V3C16 2.44772 15.5523 2 15 2H13Z" fill="#9A9AAF"/>
</svg>
